<svg width="86" height="9" viewBox="0 0 86 9" fill="none" xmlns="http://www.w3.org/2000/svg">
<path d="M3.45117 8.77148C3.02539 8.77148 2.60742 8.7168 2.19727 8.60742C1.78711 8.49414 1.41602 8.32227 1.08398 8.0918C0.755859 7.86133 0.492188 7.57031 0.292969 7.21875C0.0976562 6.86328 0 6.44531 0 5.96484H1.77539C1.77539 6.22266 1.81445 6.44141 1.89258 6.62109C1.9707 6.79688 2.08398 6.94141 2.23242 7.05469C2.38086 7.16406 2.55859 7.24414 2.76562 7.29492C2.97266 7.3457 3.20117 7.37109 3.45117 7.37109C3.75195 7.37109 4 7.33008 4.19531 7.24805C4.39062 7.16211 4.53516 7.04688 4.62891 6.90234C4.72266 6.75781 4.76953 6.5957 4.76953 6.41602C4.76953 6.2168 4.72656 6.04492 4.64062 5.90039C4.55859 5.75195 4.39844 5.61328 4.16016 5.48438C3.92188 5.35547 3.57227 5.21875 3.11133 5.07422C2.7207 4.94922 2.35352 4.80859 2.00977 4.65234C1.66602 4.49219 1.36328 4.30859 1.10156 4.10156C0.839844 3.89062 0.632812 3.64453 0.480469 3.36328C0.332031 3.08203 0.257812 2.75781 0.257812 2.39062C0.257812 1.91016 0.392578 1.49219 0.662109 1.13672C0.931641 0.78125 1.30273 0.503906 1.77539 0.304688C2.24805 0.105469 2.79297 0.00585938 3.41016 0.00585938C4.04297 0.00585938 4.59375 0.119141 5.0625 0.345703C5.53125 0.568359 5.89453 0.878906 6.15234 1.27734C6.41406 1.67188 6.54492 2.125 6.54492 2.63672H4.77539C4.77539 2.39844 4.72461 2.1875 4.62305 2.00391C4.52539 1.82031 4.37305 1.67578 4.16602 1.57031C3.95898 1.46484 3.69727 1.41211 3.38086 1.41211C3.07617 1.41211 2.82227 1.45703 2.61914 1.54688C2.41992 1.63672 2.27148 1.75586 2.17383 1.9043C2.07617 2.04883 2.02734 2.21484 2.02734 2.40234C2.02734 2.58594 2.0918 2.75 2.2207 2.89453C2.35352 3.03516 2.54492 3.16602 2.79492 3.28711C3.04492 3.4043 3.35156 3.51758 3.71484 3.62695C4.33594 3.81836 4.85547 4.03906 5.27344 4.28906C5.69531 4.53906 6.01172 4.83594 6.22266 5.17969C6.4375 5.52344 6.54492 5.93164 6.54492 6.4043C6.54492 6.90039 6.41797 7.32617 6.16406 7.68164C5.91016 8.0332 5.55078 8.30273 5.08594 8.49023C4.62109 8.67773 4.07617 8.77148 3.45117 8.77148ZM9.61523 8.6543H7.8457V0.123047H9.61523V8.6543ZM18.0059 7.57617C17.873 7.73242 17.6699 7.9043 17.3965 8.0918C17.123 8.2793 16.7676 8.43945 16.3301 8.57227C15.8965 8.70508 15.3672 8.77148 14.7422 8.77148C14.0039 8.77148 13.3574 8.61133 12.8027 8.29102C12.248 7.9668 11.8145 7.49805 11.502 6.88477C11.1934 6.26758 11.0391 5.51953 11.0391 4.64062V4.14258C11.0391 3.25977 11.1855 2.51172 11.4785 1.89844C11.7754 1.28125 12.1914 0.810547 12.7266 0.486328C13.2656 0.162109 13.8965 0 14.6191 0C15.3574 0 15.9648 0.121094 16.4414 0.363281C16.918 0.605469 17.2812 0.941406 17.5312 1.37109C17.7852 1.79688 17.9434 2.28516 18.0059 2.83594H16.2832C16.2402 2.55078 16.1582 2.30273 16.0371 2.0918C15.916 1.88086 15.7441 1.71875 15.5215 1.60547C15.3027 1.48828 15.0176 1.42969 14.666 1.42969C14.2676 1.42969 13.9316 1.53125 13.6582 1.73438C13.3887 1.9375 13.1836 2.24023 13.043 2.64258C12.9023 3.04102 12.832 3.53711 12.832 4.13086V4.64062C12.832 5.23047 12.9082 5.72656 13.0605 6.12891C13.2168 6.53125 13.4434 6.83398 13.7402 7.03711C14.0371 7.24023 14.4023 7.3418 14.8359 7.3418C15.1172 7.3418 15.3496 7.32031 15.5332 7.27734C15.7168 7.23047 15.8633 7.17578 15.9727 7.11328C16.0859 7.05078 16.1738 6.98828 16.2363 6.92578V5.46094H14.6484V4.16602H18.0059V7.57617ZM26.373 8.6543H24.6035L21.1992 3.05273V8.6543H19.4238V0.123047H21.1992L24.6094 5.73047V0.123047H26.373V8.6543ZM33.6387 8.6543H29.1328V7.22461H33.6387V8.6543ZM29.6895 8.6543H27.9082V0.123047H29.6895V8.6543ZM33.0469 4.96289H29.1328V3.57422H33.0469V4.96289ZM33.6211 1.55859H29.1328V0.123047H33.6211V1.55859ZM40.752 8.77148C40.3262 8.77148 39.9082 8.7168 39.498 8.60742C39.0879 8.49414 38.7168 8.32227 38.3848 8.0918C38.0566 7.86133 37.793 7.57031 37.5938 7.21875C37.3984 6.86328 37.3008 6.44531 37.3008 5.96484H39.0762C39.0762 6.22266 39.1152 6.44141 39.1934 6.62109C39.2715 6.79688 39.3848 6.94141 39.5332 7.05469C39.6816 7.16406 39.8594 7.24414 40.0664 7.29492C40.2734 7.3457 40.502 7.37109 40.752 7.37109C41.0527 7.37109 41.3008 7.33008 41.4961 7.24805C41.6914 7.16211 41.8359 7.04688 41.9297 6.90234C42.0234 6.75781 42.0703 6.5957 42.0703 6.41602C42.0703 6.2168 42.0273 6.04492 41.9414 5.90039C41.8594 5.75195 41.6992 5.61328 41.4609 5.48438C41.2227 5.35547 40.873 5.21875 40.4121 5.07422C40.0215 4.94922 39.6543 4.80859 39.3105 4.65234C38.9668 4.49219 38.6641 4.30859 38.4023 4.10156C38.1406 3.89062 37.9336 3.64453 37.7812 3.36328C37.6328 3.08203 37.5586 2.75781 37.5586 2.39062C37.5586 1.91016 37.6934 1.49219 37.9629 1.13672C38.2324 0.78125 38.6035 0.503906 39.0762 0.304688C39.5488 0.105469 40.0938 0.00585938 40.7109 0.00585938C41.3438 0.00585938 41.8945 0.119141 42.3633 0.345703C42.832 0.568359 43.1953 0.878906 43.4531 1.27734C43.7148 1.67188 43.8457 2.125 43.8457 2.63672H42.0762C42.0762 2.39844 42.0254 2.1875 41.9238 2.00391C41.8262 1.82031 41.6738 1.67578 41.4668 1.57031C41.2598 1.46484 40.998 1.41211 40.6816 1.41211C40.377 1.41211 40.123 1.45703 39.9199 1.54688C39.7207 1.63672 39.5723 1.75586 39.4746 1.9043C39.377 2.04883 39.3281 2.21484 39.3281 2.40234C39.3281 2.58594 39.3926 2.75 39.5215 2.89453C39.6543 3.03516 39.8457 3.16602 40.0957 3.28711C40.3457 3.4043 40.6523 3.51758 41.0156 3.62695C41.6367 3.81836 42.1562 4.03906 42.5742 4.28906C42.9961 4.53906 43.3125 4.83594 43.5234 5.17969C43.7383 5.52344 43.8457 5.93164 43.8457 6.4043C43.8457 6.90039 43.7188 7.32617 43.4648 7.68164C43.2109 8.0332 42.8516 8.30273 42.3867 8.49023C41.9219 8.67773 41.377 8.77148 40.752 8.77148ZM46.8105 8.6543H45.0293V0.123047H46.8105V8.6543ZM48.5332 4.35938L46.5645 6.48047L46.2422 4.74609L47.5723 2.91797L49.7344 0.123047H51.9082L48.5332 4.35938ZM47.4023 4.74609L48.7031 3.61523L51.9961 8.6543H49.8926L47.4023 4.74609ZM55.8398 0.123047C56.4961 0.123047 57.0586 0.222656 57.5273 0.421875C58 0.617188 58.3633 0.90625 58.6172 1.28906C58.8711 1.66797 58.998 2.13867 58.998 2.70117C58.998 3.16211 58.9199 3.55664 58.7637 3.88477C58.6113 4.20898 58.3945 4.48047 58.1133 4.69922C57.8359 4.91406 57.5078 5.08789 57.1289 5.2207L56.5664 5.53125H53.8418V4.10156H55.8398C56.1445 4.10156 56.3984 4.04883 56.6016 3.94336C56.8086 3.83789 56.9629 3.69141 57.0645 3.50391C57.1699 3.3125 57.2227 3.08984 57.2227 2.83594C57.2227 2.44141 57.1094 2.13086 56.8828 1.9043C56.6562 1.67383 56.3086 1.55859 55.8398 1.55859H54.4395V8.6543H52.6641V0.123047H55.8398ZM55.4766 4.8457H57.3516L59.3145 8.57227V8.6543H57.416L55.4766 4.8457ZM62.209 8.6543H60.4395V0.123047H62.209V8.6543ZM68.9297 0.123047H70.8984L67.9277 8.6543H66.627L66.9082 6.82031L68.9297 0.123047ZM67.0898 6.82031L67.3945 8.6543H66.082L63.123 0.123047H65.0918L67.0898 6.82031ZM77.4199 8.6543H72.9141V7.22461H77.4199V8.6543ZM73.4707 8.6543H71.6895V0.123047H73.4707V8.6543ZM76.8281 4.96289H72.9141V3.57422H76.8281V4.96289ZM77.4023 1.55859H72.9141V0.123047H77.4023V1.55859ZM81.6211 0.123047C82.2773 0.123047 82.8398 0.222656 83.3086 0.421875C83.7812 0.617188 84.1445 0.90625 84.3984 1.28906C84.6523 1.66797 84.7793 2.13867 84.7793 2.70117C84.7793 3.16211 84.7012 3.55664 84.5449 3.88477C84.3926 4.20898 84.1758 4.48047 83.8945 4.69922C83.6172 4.91406 83.2891 5.08789 82.9102 5.2207L82.3477 5.53125H79.623V4.10156H81.6211C81.9258 4.10156 82.1797 4.04883 82.3828 3.94336C82.5898 3.83789 82.7441 3.69141 82.8457 3.50391C82.9512 3.3125 83.0039 3.08984 83.0039 2.83594C83.0039 2.44141 82.8906 2.13086 82.6641 1.9043C82.4375 1.67383 82.0898 1.55859 81.6211 1.55859H80.2207V8.6543H78.4453V0.123047H81.6211ZM81.2578 4.8457H83.1328L85.0957 8.57227V8.6543H83.1973L81.2578 4.8457Z" fill="#AA0C0C"/>
</svg>
